<svg width="895" height="118" viewBox="0 0 895 118" fill="none" xmlns="http://www.w3.org/2000/svg">
<path d="M9.50079e-05 93.5736V10.3442H19.2617V93.5736H9.50079e-05ZM37.706 93.5736V29.6059H55.4219V47.3218L52.0928 41.9714C54.3915 37.691 57.681 34.4015 61.9614 32.1028C66.2418 29.804 71.1166 28.6547 76.586 28.6547C81.659 28.6547 86.1772 29.6851 90.1405 31.7461C94.183 33.7277 97.3537 36.8191 99.6524 41.0202C101.951 45.142 103.1 50.4529 103.1 56.9527V93.5736H84.5522V59.8062C84.5522 54.654 83.4029 50.8492 81.1041 48.3919C78.8847 45.9347 75.714 44.7061 71.5922 44.7061C68.6594 44.7061 66.004 45.3402 63.626 46.6084C61.3273 47.7974 59.5041 49.6602 58.1566 52.1967C56.8884 54.7332 56.2542 57.9831 56.2542 61.9464V93.5736H37.706ZM146.071 94.5248C138.541 94.5248 132.675 92.6224 128.474 88.8176C124.273 84.9336 122.173 79.1868 122.173 71.5773V15.4569H140.721V71.3395C140.721 74.0345 141.434 76.1351 142.861 77.6411C144.288 79.0679 146.23 79.7813 148.687 79.7813C151.62 79.7813 154.117 78.9886 156.178 77.4033L161.172 90.4822C159.269 91.8297 156.97 92.8602 154.275 93.5736C151.66 94.2077 148.925 94.5248 146.071 94.5248ZM112.304 43.8738V29.6059H156.653V43.8738H112.304ZM201.356 94.5248C194.063 94.5248 187.643 93.098 182.094 90.2444C176.625 87.3908 172.384 83.5068 169.372 78.5923C166.36 73.5985 164.854 67.931 164.854 61.5897C164.854 55.1692 166.32 49.5017 169.253 44.5872C172.265 39.5934 176.347 35.7094 181.5 32.935C186.652 30.0815 192.478 28.6547 198.978 28.6547C205.24 28.6547 210.868 30.0022 215.861 32.6973C220.934 35.313 224.937 39.1178 227.87 44.1116C230.803 49.0261 232.269 54.9314 232.269 61.8275C232.269 62.5409 232.23 63.3732 232.151 64.3244C232.071 65.1963 231.992 66.0286 231.913 66.8213H179.954V56.0015H222.163L215.029 59.2118C215.029 55.8826 214.355 52.9894 213.008 50.5321C211.66 48.0749 209.798 46.1725 207.42 44.825C205.042 43.3982 202.267 42.6848 199.097 42.6848C195.926 42.6848 193.112 43.3982 190.655 44.825C188.277 46.1725 186.414 48.1145 185.067 50.651C183.719 53.1083 183.045 56.0411 183.045 59.4496V62.3031C183.045 65.7908 183.798 68.8822 185.304 71.5773C186.89 74.193 189.069 76.2143 191.844 77.6411C194.697 78.9886 198.027 79.6624 201.831 79.6624C205.24 79.6624 208.212 79.1472 210.749 78.1167C213.365 77.0863 215.743 75.5406 217.883 73.4796L227.751 84.1806C224.818 87.5097 221.133 90.0859 216.694 91.909C212.255 93.6529 207.142 94.5248 201.356 94.5248ZM244.618 93.5736V5.35046H263.167V93.5736H244.618ZM280.381 93.5736V5.35046H298.929V93.5736H280.381ZM316.143 93.5736V29.6059H334.692V93.5736H316.143ZM325.418 20.6884C322.009 20.6884 319.235 19.6976 317.095 17.716C314.955 15.7343 313.884 13.2771 313.884 10.3442C313.884 7.41138 314.955 4.95413 317.095 2.97248C319.235 0.990827 322.009 -6.89166e-07 325.418 -6.89166e-07C328.826 -6.89166e-07 331.6 0.951194 333.741 2.85358C335.881 4.6767 336.951 7.05468 336.951 9.98753C336.951 13.0789 335.881 15.6551 333.741 17.716C331.68 19.6976 328.905 20.6884 325.418 20.6884ZM381.988 117.591C375.963 117.591 370.137 116.838 364.509 115.332C358.961 113.905 354.324 111.726 350.598 108.793L357.97 95.476C360.665 97.6954 364.073 99.4393 368.195 100.708C372.396 102.055 376.518 102.729 380.561 102.729C387.14 102.729 391.896 101.262 394.829 98.3296C397.841 95.3967 399.347 91.0371 399.347 85.2507V75.6198L400.536 59.5685L400.298 43.3982V29.6059H417.895V82.8727C417.895 94.7626 414.804 103.521 408.621 109.149C402.438 114.777 393.56 117.591 381.988 117.591ZM379.134 90.4822C373.189 90.4822 367.799 89.214 362.964 86.6774C358.208 84.0617 354.363 80.4551 351.431 75.8576C348.577 71.1809 347.15 65.7512 347.15 59.5685C347.15 53.3064 348.577 47.8767 351.431 43.2793C354.363 38.6026 358.208 34.996 362.964 32.4595C367.799 29.9229 373.189 28.6547 379.134 28.6547C384.524 28.6547 389.28 29.7644 393.402 31.9839C397.524 34.124 400.734 37.4929 403.033 42.0903C405.331 46.6084 406.481 52.4345 406.481 59.5685C406.481 66.6231 405.331 72.4492 403.033 77.0466C400.734 81.5648 397.524 84.9336 393.402 87.153C389.28 89.3725 384.524 90.4822 379.134 90.4822ZM382.82 75.2631C386.07 75.2631 388.963 74.629 391.5 73.3607C394.036 72.0132 396.018 70.1505 397.444 67.7725C398.871 65.3945 399.585 62.6598 399.585 59.5685C399.585 56.3978 398.871 53.6631 397.444 51.3644C396.018 48.9864 394.036 47.1633 391.5 45.8951C388.963 44.5475 386.07 43.8738 382.82 43.8738C379.57 43.8738 376.677 44.5475 374.14 45.8951C371.604 47.1633 369.582 48.9864 368.076 51.3644C366.65 53.6631 365.936 56.3978 365.936 59.5685C365.936 62.6598 366.65 65.3945 368.076 67.7725C369.582 70.1505 371.604 72.0132 374.14 73.3607C376.677 74.629 379.57 75.2631 382.82 75.2631ZM466.905 94.5248C459.612 94.5248 453.192 93.098 447.643 90.2444C442.174 87.3908 437.933 83.5068 434.921 78.5923C431.909 73.5985 430.403 67.931 430.403 61.5897C430.403 55.1692 431.869 49.5017 434.802 44.5872C437.814 39.5934 441.896 35.7094 447.049 32.935C452.201 30.0815 458.027 28.6547 464.527 28.6547C470.789 28.6547 476.417 30.0022 481.41 32.6973C486.483 35.313 490.486 39.1178 493.419 44.1116C496.352 49.0261 497.819 54.9314 497.819 61.8275C497.819 62.5409 497.779 63.3732 497.7 64.3244C497.62 65.1963 497.541 66.0286 497.462 66.8213H445.503V56.0015H487.712L480.578 59.2118C480.578 55.8826 479.904 52.9894 478.557 50.5321C477.209 48.0749 475.347 46.1725 472.969 44.825C470.591 43.3982 467.816 42.6848 464.646 42.6848C461.475 42.6848 458.661 43.3982 456.204 44.825C453.826 46.1725 451.963 48.1145 450.616 50.651C449.268 53.1083 448.594 56.0411 448.594 59.4496V62.3031C448.594 65.7908 449.347 68.8822 450.853 71.5773C452.439 74.193 454.619 76.2143 457.393 77.6411C460.246 78.9886 463.576 79.6624 467.38 79.6624C470.789 79.6624 473.761 79.1472 476.298 78.1167C478.914 77.0863 481.292 75.5406 483.432 73.4796L493.3 84.1806C490.368 87.5097 486.682 90.0859 482.243 91.909C477.804 93.6529 472.691 94.5248 466.905 94.5248ZM510.167 93.5736V29.6059H527.883V47.3218L524.554 41.9714C526.853 37.691 530.142 34.4015 534.423 32.1028C538.703 29.804 543.578 28.6547 549.047 28.6547C554.12 28.6547 558.639 29.6851 562.602 31.7461C566.644 33.7277 569.815 36.8191 572.114 41.0202C574.412 45.142 575.562 50.4529 575.562 56.9527V93.5736H557.014V59.8062C557.014 54.654 555.864 50.8492 553.565 48.3919C551.346 45.9347 548.175 44.7061 544.054 44.7061C541.121 44.7061 538.465 45.3402 536.087 46.6084C533.789 47.7974 531.965 49.6602 530.618 52.1967C529.35 54.7332 528.716 57.9831 528.716 61.9464V93.5736H510.167ZM623.753 94.5248C616.857 94.5248 610.714 93.1376 605.324 90.3633C599.934 87.5097 595.693 83.5861 592.602 78.5923C589.589 73.5985 588.083 67.931 588.083 61.5897C588.083 55.1692 589.589 49.5017 592.602 44.5872C595.693 39.5934 599.934 35.7094 605.324 32.935C610.714 30.0815 616.857 28.6547 623.753 28.6547C630.491 28.6547 636.356 30.0815 641.35 32.935C646.344 35.7094 650.03 39.7123 652.408 44.9439L638.021 52.6723C636.356 49.6602 634.256 47.4407 631.719 46.014C629.262 44.5872 626.567 43.8738 623.634 43.8738C620.464 43.8738 617.61 44.5872 615.073 46.014C612.537 47.4407 610.516 49.462 609.01 52.0778C607.583 54.6936 606.869 57.8642 606.869 61.5897C606.869 65.3152 607.583 68.4859 609.01 71.1017C610.516 73.7174 612.537 75.7387 615.073 77.1655C617.61 78.5923 620.464 79.3057 623.634 79.3057C626.567 79.3057 629.262 78.6319 631.719 77.2844C634.256 75.8576 636.356 73.5985 638.021 70.5072L652.408 78.3545C650.03 83.5068 646.344 87.5097 641.35 90.3633C636.356 93.1376 630.491 94.5248 623.753 94.5248ZM694.021 94.5248C686.728 94.5248 680.308 93.098 674.759 90.2444C669.29 87.3908 665.049 83.5068 662.037 78.5923C659.025 73.5985 657.519 67.931 657.519 61.5897C657.519 55.1692 658.985 49.5017 661.918 44.5872C664.93 39.5934 669.012 35.7094 674.164 32.935C679.317 30.0815 685.143 28.6547 691.643 28.6547C697.905 28.6547 703.533 30.0022 708.526 32.6973C713.599 35.313 717.602 39.1178 720.535 44.1116C723.468 49.0261 724.934 54.9314 724.934 61.8275C724.934 62.5409 724.895 63.3732 724.815 64.3244C724.736 65.1963 724.657 66.0286 724.578 66.8213H672.619V56.0015H714.828L707.694 59.2118C707.694 55.8826 707.02 52.9894 705.673 50.5321C704.325 48.0749 702.462 46.1725 700.084 44.825C697.706 43.3982 694.932 42.6848 691.762 42.6848C688.591 42.6848 685.777 43.3982 683.32 44.825C680.942 46.1725 679.079 48.1145 677.731 50.651C676.384 53.1083 675.71 56.0411 675.71 59.4496V62.3031C675.71 65.7908 676.463 68.8822 677.969 71.5773C679.555 74.193 681.734 76.2143 684.509 77.6411C687.362 78.9886 690.691 79.6624 694.496 79.6624C697.905 79.6624 700.877 79.1472 703.414 78.1167C706.029 77.0863 708.407 75.5406 710.548 73.4796L720.416 84.1806C717.483 87.5097 713.797 90.0859 709.359 91.909C704.92 93.6529 699.807 94.5248 694.021 94.5248ZM737.283 93.5736V29.6059H754.999V47.6785L752.502 42.447C754.405 37.9288 757.456 34.5204 761.657 32.2217C765.859 29.8437 770.971 28.6547 776.995 28.6547V45.7762C776.203 45.6969 775.489 45.6573 774.855 45.6573C774.221 45.578 773.547 45.5384 772.834 45.5384C767.761 45.5384 763.639 47.0048 760.468 49.9376C757.377 52.7912 755.831 57.2697 755.831 63.3732V93.5736H737.283ZM773.517 93.5736L810.613 10.3442H829.637L866.852 93.5736H846.64L816.201 20.0939H823.811L793.254 93.5736H773.517ZM792.065 75.7387L797.178 61.1141H839.981L845.213 75.7387H792.065ZM875.488 93.5736V10.3442H894.749V93.5736H875.488Z" fill="white"/>
</svg>
